<svg xmlns="http://www.w3.org/2000/svg" fill="none" viewBox="0 0 132 146" height="146" width="132">
<path fill="#333333" d="M5.00986 37.2728C1.70235 25.4559 0 12.7907 0 0.000208012L65.815 0.000217899L131.63 0.000220251C131.63 12.7907 129.928 25.4559 126.62 37.2728C123.313 49.0897 118.465 59.8267 112.353 68.871C111.392 70.2942 110.402 71.671 109.385 73C110.402 74.329 111.392 75.7059 112.353 77.1291C118.465 86.1733 123.313 96.9104 126.62 108.727C129.928 120.544 131.63 133.209 131.63 146H65.815H0C0 133.209 1.70235 120.544 5.00987 108.727C8.31738 96.9104 13.1653 86.1733 19.2768 77.1291C20.2385 75.7059 21.2285 74.329 22.2452 73C21.2285 71.671 20.2385 70.2942 19.2768 68.871C13.1653 59.8267 8.31738 49.0897 5.00986 37.2728Z" clip-rule="evenodd" fill-rule="evenodd"></path>
</svg>
