<svg xmlns="http://www.w3.org/2000/svg" fill="none" viewBox="0 0 133 146" height="146" width="133">
<path fill="#333333" d="M132.907 30.0498C132.907 38.4637 125.26 46.07 112.937 51.5249C125.26 56.9797 132.907 64.586 132.907 73C132.907 81.4139 125.26 89.0202 112.937 94.4751C125.26 99.9299 132.907 107.536 132.907 115.95C132.907 132.546 103.155 146 66.4536 146C29.7523 146 0 132.546 0 115.95C0 107.536 7.64737 99.9299 19.9706 94.4751C7.64737 89.0202 0 81.4139 0 73C0 64.586 7.64737 56.9797 19.9706 51.5249C7.64737 46.07 0 38.4637 0 30.0498C0 13.4537 29.7523 0 66.4536 0C103.155 0 132.907 13.4537 132.907 30.0498Z" clip-rule="evenodd" fill-rule="evenodd"></path>
</svg>
